# xmcd CD database file
#
# Track frame offsets:
#	150
#	18600
#	39450
#	59400
#	71738
#	90863
#	108788
#	115275
#	126075
#	142950
#	157575
#	180150
#	195038
#	209475
#	229575
#
# Disc length: 3336 seconds
#
# Revision: 4
# Processed by: cddbd v1.4PL0 Copyright (c) Steve Scherf et al.
# Submitted via: CDex 1.51
#
DISCID=b50d060f
DTITLE=Jean Kelly Jazz - Live at the Colonial Inn
DYEAR=1994
DGENRE=Jazz
TTITLE0=Louisiana
TTITLE1=Big lip blues
TTITLE2=That's a-plenty
TTITLE3=St. James Infirmary blues
TTITLE4=Button up your overcoat
TTITLE5=Memories of you
TTITLE6=Blues my naughty sweetie gives to me
TTITLE7=Sugar blues
TTITLE8=Clarinet marmalade
TTITLE9=Keepin' out of mischief now
TTITLE10=Doctor jazz
TTITLE11=If I had you
TTITLE12=Blue skies
TTITLE13=Just a closer walk with thee
TTITLE14=Indiana (back home again)
EXTD=YEAR: 1994
EXTT0=
EXTT1=
EXTT2=
EXTT3=
EXTT4=
EXTT5=
EXTT6=
EXTT7=
EXTT8=
EXTT9=
EXTT10=
EXTT11=
EXTT12=
EXTT13=
EXTT14=
PLAYORDER=
